<svg width="803" height="871" viewBox="0 0 803 871" fill="none" xmlns="http://www.w3.org/2000/svg">
<path d="M622.5 680L668.331 720.185C683.056 733.096 691.5 751.73 691.5 771.314V778C691.5 815.555 661.055 846 623.5 846H184C146.445 846 116 815.555 116 778V773.283C116 752.569 125.442 732.984 141.649 720.082L192 680" stroke="white" stroke-width="50" stroke-linecap="round"/>
<path d="M490 533.227V443.445C490 420.132 501.943 398.444 521.644 385.98L534.947 377.564C552.733 366.312 575.032 364.917 594.081 373.864L600.97 377.1C618.383 385.278 629.5 402.783 629.5 422.02C629.5 437.452 622.321 452.007 610.076 461.399L506.086 541.162C499.508 546.207 490 541.517 490 533.227Z" stroke="white" stroke-width="50" stroke-linecap="round"/>
<path d="M320.5 533.227V443.445C320.5 420.132 308.557 398.444 288.856 385.98L275.553 377.564C257.767 366.312 235.468 364.917 216.419 373.864L209.53 377.1C192.117 385.278 181 402.783 181 422.02C181 437.452 188.179 452.007 200.424 461.399L304.414 541.162C310.992 546.207 320.5 541.517 320.5 533.227Z" stroke="white" stroke-width="50" stroke-linecap="round"/>
<path d="M171.834 230.373L353.879 253.229C359.252 253.904 364 249.715 364 244.299V180.5C364 174.977 359.523 170.5 354 170.5H316C310.477 170.5 306 166.023 306 160.5V93C306 87.4772 310.477 83 316 83H354C359.523 83 364 78.5229 364 73V35C364 29.4772 368.477 25 374 25H444C449.523 25 454 29.4772 454 35V73C454 78.5228 458.477 83 464 83H505C510.523 83 515 87.4772 515 93V160.5C515 166.023 510.523 170.5 505 170.5H464C458.477 170.5 454 174.977 454 180.5V244.358C454 249.753 458.714 253.936 464.07 253.294L651.676 230.829C676.513 227.855 700.977 238.756 715.372 259.213L765.111 329.894C773.173 341.351 777.5 355.019 777.5 369.028V464.872C777.5 479.869 772.542 494.445 763.398 506.332L647.915 656.46C635.043 673.194 615.129 683 594.017 683H221.162C201.089 683 182.041 674.131 169.121 658.768L41.4584 506.975C31.1513 494.72 25.5 479.22 25.5 463.207V373.973C25.5 356.947 31.8872 340.54 43.3992 327.996L113.262 251.866C128.154 235.64 149.982 227.63 171.834 230.373Z" stroke="white" stroke-width="50" stroke-linecap="round"/>
</svg>
