<svg width="711" height="870" viewBox="0 0 711 870" fill="none" xmlns="http://www.w3.org/2000/svg">
<path d="M227.5 265.5C247.45 233.2 260.364 230.324 284 230.5" stroke="white" stroke-width="50" stroke-linecap="round"/>
<path d="M189.5 667.5L121.532 735.861C109.663 747.799 103 763.95 103 780.784V780.784C103 815.974 131.526 844.5 166.716 844.5H621.494C657.12 844.5 686 815.62 686 779.994V779.994C686 763.615 679.769 747.848 668.57 735.894L604.5 667.5" stroke="white" stroke-width="50" stroke-linecap="round"/>
<path d="M211.031 169.579L113.5 300.5L40.5191 411.263C18.8663 444.126 29.5461 488.451 63.7898 507.846L69.8846 511.297C95.8193 525.986 128.297 522.074 150.001 501.646L161.862 490.482C174.476 478.611 191.145 472 208.467 472H238.713C253.072 472 266.933 466.741 277.678 457.217L310.494 428.131C328.162 412.47 356.137 420.915 362.188 443.736C364.885 453.907 362.361 464.754 355.452 472.69L193.038 659.247C188.531 664.424 192.208 672.5 199.072 672.5H555.019C589.506 672.5 618.532 646.683 622.555 612.432L647.403 400.87C649.394 383.913 644.934 366.828 634.909 353.008L519.322 193.675C510.984 182.181 499.256 173.585 485.784 169.095L354.605 125.368C344.03 121.843 334.485 115.774 326.808 107.693L272.8 50.8421C255.38 32.5047 224.5 44.8342 224.5 70.1271V128.955C224.5 143.593 219.776 157.841 211.031 169.579Z" stroke="white" stroke-width="50" stroke-linecap="round"/>
</svg>
