<svg width="783" height="772" viewBox="0 0 783 772" fill="none" xmlns="http://www.w3.org/2000/svg">
<circle cx="381.5" cy="150" r="130" stroke="white" stroke-width="40"/>
<path d="M462.5 257.5L506.178 271.149C554.475 286.242 543.6 357.5 493 357.5V357.5H263.5V357.5C215.057 357.5 204.055 289.595 250.02 274.299L300.5 257.5" stroke="white" stroke-width="50" stroke-linecap="round"/>
<path d="M282.5 359.5L254.199 482.277C250.43 498.626 243.754 514.164 234.487 528.151L159.431 641.444C129.484 686.646 161.897 747 216.119 747H540.54C594.628 747 627.067 686.912 597.391 641.691L514.703 515.69C510.923 509.93 508.04 503.629 506.154 497.004L467 359.5" stroke="white" stroke-width="50" stroke-linecap="round"/>
</svg>
