<svg width="833" height="851" viewBox="0 0 833 851" fill="none" xmlns="http://www.w3.org/2000/svg">
<path d="M212.5 650L148.761 713.739C136.428 726.072 129.5 742.798 129.5 760.239V760.239C129.5 796.558 158.942 826 195.261 826H631.846C668.934 826 699 795.934 699 758.846V758.846C699 742.21 692.825 726.166 681.672 713.823L624 650" stroke="white" stroke-width="50" stroke-linecap="round"/>
<path d="M101.065 372.402L193.306 614.234C203.358 640.588 228.636 658 256.842 658H574.563C601.815 658 626.434 641.731 637.119 616.661L742.838 368.612C746.248 360.612 751.16 353.34 757.31 347.19L787.549 316.951C802.632 301.868 809.764 280.58 806.811 259.454L805.181 247.793C801.184 219.198 779.472 196.297 751.132 190.781C733.742 187.396 715.719 190.971 700.938 200.737L698.515 202.339C679.462 214.927 668 236.238 668 259.073V276.645C668 294.495 660.981 311.63 648.458 324.35L581.563 392.302C578.425 395.49 573 393.267 573 388.794V195.285C573 181.427 577.234 167.899 585.136 156.514L595.123 142.124C610.024 120.653 611.302 92.5431 598.41 69.8094L592.238 58.9249C580.348 37.9574 558.104 25 534 25C509.896 25 487.652 37.9574 475.762 58.925L465.341 77.3016C454.744 95.989 453.601 118.585 462.258 138.246L467.104 149.254C474.102 165.146 474.754 183.113 468.928 199.471L416.812 345.797C415.545 349.354 410.507 349.336 409.266 345.769L359.006 201.322C352.932 183.864 354.226 164.686 362.591 148.203L366.615 140.274C377.132 119.549 376.336 94.8879 364.505 74.8841L354.744 58.3824C342.507 37.6919 320.254 25 296.216 25H291.958C265.718 25 241.82 40.0974 230.549 63.7936L225.412 74.596C215.767 94.8737 216.755 118.605 228.051 138.011L239.769 158.141C245.815 168.528 249 180.332 249 192.35V388.744C249 392.614 244.053 394.228 241.77 391.104L191.592 322.421C183.085 310.776 178.5 296.728 178.5 282.307V261.873C178.5 243.716 171.239 226.314 158.333 213.541L154.228 209.479C138.98 194.388 117.505 187.377 96.2906 190.565L84.547 192.33C54.3706 196.864 30.91 220.945 27.1651 251.23L26.44 257.094C23.6642 279.542 32.2316 301.9 49.2971 316.745L82.1591 345.33C90.5897 352.664 97.0832 361.962 101.065 372.402Z" stroke="white" stroke-width="50" stroke-linecap="round"/>
</svg>
