<svg width="644" height="875" viewBox="0 0 644 875" fill="none" xmlns="http://www.w3.org/2000/svg">
<path d="M499.5 668.5L538.413 593.185C543.398 583.535 546 572.832 546 561.971V371.256C546 356.796 541.39 342.713 532.841 331.051L440.145 204.612C434.672 197.147 422.987 199.368 420.635 208.321L365.631 417.651C360.546 437.007 343.049 450.5 323.036 450.5V450.5C302.073 450.5 284.016 435.725 279.866 415.177L270.533 368.97C267.902 355.943 269.146 342.43 274.112 330.102L308.082 245.762C309.359 242.592 310.873 239.522 312.611 236.58L373.937 132.773C392.024 102.157 383.468 62.7748 354.308 42.4233L344.283 35.4266C323.902 21.2023 296.63 21.9226 277.028 37.2027V37.2027C258.619 51.5528 250.895 75.7242 257.572 98.0901L257.81 98.8897C263.251 117.117 259.388 136.855 247.476 151.686L103.983 330.345C94.2857 342.419 89 357.441 89 372.927V523.29C89 536.478 92.835 549.382 100.038 560.429L170.5 668.5M499.5 668.5H170.5M499.5 668.5L585.341 719.716C605.905 731.985 618.5 754.166 618.5 778.112V782C618.5 819.555 588.055 850 550.5 850H93C55.4446 850 25 819.544 25 781.989V781.989C25 755.995 39.8183 732.269 63.1789 720.87L170.5 668.5" stroke="black" stroke-width="50" stroke-linecap="round"/>
</svg>
