<svg width="630" height="776" viewBox="0 0 630 776" fill="none" xmlns="http://www.w3.org/2000/svg">
<path d="M497 583L580.2 642.704C595.768 653.875 605 671.863 605 691.025V691.025C605 723.872 578.372 750.5 545.525 750.5H85.6431C52.1508 750.5 25 723.349 25 689.857V689.857C25 671.315 33.4828 653.792 48.0266 642.29L123 583" stroke="black" stroke-width="50" stroke-linecap="round"/>
<path d="M149 268.5L109.522 525.683C103.2 566.867 135.068 604 176.735 604H435C476.067 604 507.762 567.876 502.422 527.158L468.5 268.5" stroke="black" stroke-width="50" stroke-linecap="round"/>
<path d="M75 187.324V94.8427C75 73.4078 90.101 54.9403 111.109 50.6838C133.975 46.0508 156.596 59.6397 163.244 82.003L165.526 89.6778C170.256 105.59 184.882 116.5 201.482 116.5C219.483 116.5 234.945 103.714 238.327 86.0347L241.25 70.75C246.328 44.2003 269.548 25 296.579 25H325.755C352.32 25 374.872 44.4692 378.75 70.75L380.864 85.0786C383.527 103.128 399.016 116.5 417.262 116.5C431.197 116.5 443.937 108.627 450.169 96.1622L461.198 74.1049C470.486 55.5274 491.221 45.6489 511.5 50.1392C532.239 54.7314 547 73.119 547 94.3602V179.763C547 200.735 537.323 220.534 520.774 233.418L495.424 253.155C483.484 262.452 468.783 267.5 453.65 267.5H153.724C134.192 267.5 115.603 259.101 102.694 244.444L91.9701 232.268C81.0335 219.851 75 203.871 75 187.324Z" stroke="black" stroke-width="50" stroke-linecap="round"/>
</svg>
