<svg width="477" height="514" viewBox="0 0 477 514" fill="none" xmlns="http://www.w3.org/2000/svg">
<path d="M145.5 83.5L229.881 29.4196C245.233 19.5804 265.121 20.4937 279.506 31.6985L437.923 155.088C448.383 163.236 454.5 175.753 454.5 189.012V448.5C454.5 472.248 435.248 491.5 411.5 491.5H350C326.252 491.5 307 472.248 307 448.5V380.5C307 356.752 287.748 337.5 264 337.5H218.5C194.752 337.5 175.5 356.752 175.5 380.5V402.5M75.5 132.5L41.9135 155.211C30.0864 163.208 23 176.554 23 190.832V448.5C23 472.248 42.2518 491.5 66 491.5H191" stroke="black" stroke-width="45" stroke-linecap="round"/>
</svg>
