<svg width="560" height="575" viewBox="0 0 560 575" fill="none" xmlns="http://www.w3.org/2000/svg">
<path d="M20 256.435V256.435C20 228.456 25.7569 200.777 36.9127 175.119L43.565 159.819L45.4131 156.353C60.7945 127.513 81.5833 101.904 106.645 80.9215V80.9215C126.272 64.4897 148.264 51.1105 171.88 41.2349L173.508 40.5538C205.952 26.9865 240.767 20 275.934 20V20C325.811 20 374.68 34.0509 416.941 60.5428L418.355 61.4289C444.273 77.6761 467.198 98.2668 486.125 122.298L494.568 133.017C516.144 160.411 530.625 192.706 536.729 227.038V227.038C538.905 239.281 540 251.692 540 264.127V283.745C540 301.636 538.408 319.491 535.242 337.1L533.787 345.193C529.573 368.635 521.968 391.339 511.211 412.589L510.488 414.018C500.366 434.015 487.427 452.456 472.066 468.777V468.777C462.39 479.058 451.805 488.442 440.44 496.817L421.17 511.016C405.673 522.435 388.751 531.782 370.835 538.821V538.821C345.069 548.943 317.633 554.139 289.95 554.139H278.756C241.741 554.139 205.11 546.641 171.073 532.098V532.098C147.97 522.226 126.334 509.225 106.773 493.46L99.6853 487.747C89.0068 479.141 79.2383 469.463 70.5327 458.865V458.865C55.296 440.316 43.5092 419.185 35.7319 396.475L27.855 373.474" stroke="black" stroke-width="40" stroke-linecap="round"/>
<path d="M324.5 243.5L397.542 288.756C404.026 292.774 403.805 302.28 397.141 305.992L206.893 411.983C200.221 415.7 192.014 410.869 192.026 403.232L192.36 184.543C192.372 176.796 200.808 172.004 207.468 175.961L256.174 204.903" stroke="black" stroke-width="40" stroke-linecap="round"/>
</svg>
