<svg width="687" height="679" viewBox="0 0 687 679" fill="none" xmlns="http://www.w3.org/2000/svg">
<path d="M175.5 579.5V490.042C175.5 488.994 174.53 488.216 173.507 488.443L118.759 500.609C97.5024 505.333 75.2392 501.226 57.0674 489.229V489.229C42.1191 479.36 30.8976 464.779 25.1857 447.802L24.8785 446.889C19.1168 429.764 19.0908 411.228 24.8046 394.086L26.5293 388.912C31.4298 374.21 39.9744 360.99 51.3658 350.483V350.483C72.8259 330.69 102.425 322.291 131.083 327.863L173.868 336.183C174.714 336.347 175.5 335.699 175.5 334.838V177.5C175.5 171.977 179.977 167.5 185.5 167.5H336.845C337.649 167.5 338.209 166.701 337.934 165.945L326.85 135.52C318.103 111.509 320.832 84.8138 334.257 63.0691V63.0691C343.515 48.0749 357.278 36.3936 373.577 29.6968L378.246 27.7786C400.546 18.6167 425.526 18.438 447.954 27.28L449.306 27.813C459.67 31.8987 469.14 37.9603 477.191 45.6605V45.6605C491.612 59.4553 500.784 77.8393 503.131 97.6579L504 105" stroke="black" stroke-width="40" stroke-linecap="round"/>
<path d="M486.5 167H656.5C662.023 167 666.5 171.477 666.5 177V334.044C666.5 335.042 665.568 335.778 664.597 335.547V335.547C618.373 324.541 563.033 324.605 535.047 363.006C534.324 363.998 533.64 364.997 533 366C527.357 374.849 523.029 387.381 520.034 398.144C516.085 412.333 517.459 427.308 522.155 441.267L522.409 442.022C529.229 462.291 543.289 479.331 561.895 489.874V489.874C581.82 501.165 605.399 504.126 627.497 498.113L664.744 487.978C665.628 487.737 666.5 488.403 666.5 489.32V649C666.5 654.523 662.023 659 656.5 659H498.476C497.74 659 497.213 658.291 497.424 657.586L503.064 638.785C510.686 613.382 507.551 585.963 494.392 562.936L493.56 561.48C485.343 547.101 473.351 535.243 458.88 527.189L454.536 524.772C434.783 513.779 411.289 511.698 389.911 519.046V519.046C370.402 525.752 354.256 539.766 344.872 558.138L343.043 561.718C330.974 585.347 329.997 613.109 340.375 637.528L348.88 657.541C349.174 658.233 348.666 659 347.914 659H241H172.5" stroke="black" stroke-width="40" stroke-linecap="round"/>
</svg>
