<svg width="521" height="531" viewBox="0 0 521 531" fill="none" xmlns="http://www.w3.org/2000/svg">
<path d="M75.5 443L142.931 419.423C145.528 418.515 148.385 418.717 150.828 419.982L185.03 437.686C187.842 439.142 189.798 441.843 190.305 444.968L199.639 502.599C200.424 507.441 204.605 511 209.511 511H307.003C311.679 511 315.73 507.76 316.758 503.198L329.983 444.513C330.628 441.65 332.498 439.215 335.098 437.853L369.02 420.085C371.551 418.759 374.529 418.579 377.202 419.592L431.375 440.112C435.814 441.793 440.824 440.122 443.364 436.113L498.225 349.535C500.946 345.242 500.013 339.59 496.057 336.399L447.221 297.002C444.868 295.104 443.5 292.242 443.5 289.219V253.159C443.5 250.205 444.806 247.403 447.067 245.503L496.495 203.967C500.246 200.814 501.161 195.408 498.655 191.198L447.617 105.42C445.214 101.38 440.321 99.5598 435.861 101.046L377.19 120.603C374.521 121.493 371.601 121.217 369.145 119.843L335 100.738C332.46 99.3172 330.666 96.8602 330.085 94.0085L316.631 28.0028C315.682 23.3456 311.586 20 306.833 20H209.642C204.679 20 200.467 23.6399 199.747 28.5505L190.218 93.5964C189.766 96.6861 187.896 99.3871 185.163 100.898L150.897 119.845C148.416 121.217 145.47 121.471 142.791 120.546L86.6103 101.13C82.1674 99.5946 77.2548 101.361 74.8069 105.374L22.5303 191.073C19.9328 195.332 20.8704 200.853 24.7281 204.015L75.3393 245.499C77.6565 247.399 79 250.237 79 253.233V289.144C79 292.21 77.5934 295.107 75.1839 297.003L24.7615 336.679C20.8742 339.738 19.8073 345.18 22.2517 349.48L45 389.5" stroke="black" stroke-width="40" stroke-linecap="round"/>
<mask id="mask0_34_30" style="mask-type:alpha" maskUnits="userSpaceOnUse" x="140" y="152" width="240" height="242">
<mask id="path-2-inside-1_34_30" fill="white">
<path d="M380 273C380 300.763 370.374 327.666 352.761 349.127C335.149 370.588 310.64 385.278 283.411 390.694C256.182 396.11 227.917 391.918 203.432 378.831C178.948 365.743 159.759 344.571 149.134 318.922C138.51 293.273 137.108 264.733 145.167 238.166C153.226 211.599 170.248 188.648 193.332 173.224C216.415 157.8 244.133 150.857 271.762 153.578C299.391 156.299 325.222 168.516 344.853 188.147L260 273H380Z"/>
</mask>
<path d="M380 273C380 300.763 370.374 327.666 352.761 349.127C335.149 370.588 310.64 385.278 283.411 390.694C256.182 396.11 227.917 391.918 203.432 378.831C178.948 365.743 159.759 344.571 149.134 318.922C138.51 293.273 137.108 264.733 145.167 238.166C153.226 211.599 170.248 188.648 193.332 173.224C216.415 157.8 244.133 150.857 271.762 153.578C299.391 156.299 325.222 168.516 344.853 188.147L260 273H380Z" stroke="black" stroke-width="80" mask="url(#path-2-inside-1_34_30)"/>
</mask>
<g mask="url(#mask0_34_30)">
<circle cx="260" cy="273" r="100" stroke="black" stroke-width="40"/>
</g>
<path d="M325.5 197.5C334 204.5 339.5 214 341 218" stroke="black" stroke-width="40" stroke-linecap="round"/>
<path d="M357.5 297.5C359.771 287.466 360.267 284.811 360 274.5" stroke="black" stroke-width="40" stroke-linecap="round"/>
</svg>
